#N canvas 720 406 588 300 10;
#N canvas 415 295 450 300 cuica 0;
#X obj 111 254 dac~;
#X obj 163 103 bng 15 250 50 0 empty empty empty 17 7 0 10 -262144
-1 -1;
#X obj 153 182 line~;
#X obj 113 221 *~;
#X msg 237 162 0 20;
#X msg 158 151 1 50;
#X obj 236 126 del 50;
#X obj 104 119 osc~ 400;
#X obj 66 18 r cuica;
#X obj 64 43 route 1;
#X obj 126 57 t b b;
#X obj 53 74 t b b;
#X msg 39 101 440;
#X msg 112 84 880;
#X connect 1 0 5 0;
#X connect 1 0 6 0;
#X connect 2 0 3 1;
#X connect 3 0 0 0;
#X connect 3 0 0 1;
#X connect 4 0 2 0;
#X connect 5 0 2 0;
#X connect 6 0 4 0;
#X connect 7 0 3 0;
#X connect 8 0 9 0;
#X connect 9 0 11 0;
#X connect 9 1 10 0;
#X connect 10 0 1 0;
#X connect 10 1 13 0;
#X connect 11 0 1 0;
#X connect 11 1 12 0;
#X connect 12 0 7 0;
#X connect 13 0 7 0;
#X restore 74 141 pd cuica;
#X obj 317 -35 bng 15 250 50 0 empty empty empty 17 7 0 10 -262144
-1 -1;
#X obj 399 -37 bng 15 250 50 0 empty empty empty 17 7 0 10 -262144
-1 -1;
#N canvas 422 269 450 300 kick 0;
#X obj 108 188 dac~;
#X obj 160 37 bng 15 250 50 0 empty empty empty 17 7 0 10 -262144 -1
-1;
#X obj 150 116 line~;
#X obj 110 155 *~;
#X obj 101 53 osc~ 50;
#X msg 234 96 0 20;
#X msg 155 85 1 50;
#X obj 233 60 del 50;
#X obj 158 5 r kick;
#X connect 1 0 6 0;
#X connect 1 0 7 0;
#X connect 2 0 3 1;
#X connect 3 0 0 0;
#X connect 3 0 0 1;
#X connect 4 0 3 0;
#X connect 5 0 2 0;
#X connect 6 0 2 0;
#X connect 7 0 5 0;
#X connect 8 0 1 0;
#X restore 157 140 pd kick;
#X obj 206 -45 bng 15 250 50 0 empty empty empty 17 7 0 10 -262144
-1 -1;
#X obj 206 -10 send kick, f 11;
#N canvas 65 82 450 300 shake 0;
#X obj 102 58 noise~;
#X obj 108 188 dac~;
#X obj 160 37 bng 15 250 50 0 empty empty empty 17 7 0 10 -262144 -1
-1;
#X obj 150 116 line~;
#X obj 110 155 *~;
#X msg 155 85 1 100;
#X obj 233 60 del 100;
#X msg 234 96 0 50;
#X obj 158 5 r shake;
#X connect 0 0 4 0;
#X connect 2 0 5 0;
#X connect 2 0 6 0;
#X connect 3 0 4 1;
#X connect 4 0 1 0;
#X connect 5 0 3 0;
#X connect 6 0 7 0;
#X connect 7 0 3 0;
#X connect 8 0 2 0;
#X restore 234 136 pd shake;
#X obj 209 27 bng 15 250 50 0 empty empty empty 17 7 0 10 -262144 -1
-1;
#X obj 209 62 send shake, f 11;
#N canvas 499 212 450 300 piano 1;
#X obj 111 254 dac~;
#X obj 163 103 bng 15 250 50 0 empty empty empty 17 7 0 10 -262144
-1 -1;
#X obj 166 201 line~;
#X obj 113 221 *~;
#X obj 80 139 osc~ 400;
#X obj 117 5 r piano;
#X obj 64 87 t b f;
#X obj 79 104 mtof;
#X msg 158 151 1 150;
#X obj 236 126 del 150;
#X obj 10 139 osc~ 400;
#X obj 53 183 *~;
#X msg 237 162 0.5 20;
#X msg 312 163 0 200;
#X obj 17 104 * 4;
#X obj 149 49 0;
#X obj 30 51 60;
#X connect 1 0 8 0;
#X connect 1 0 9 0;
#X connect 2 0 3 1;
#X connect 3 0 0 0;
#X connect 3 0 0 1;
#X connect 4 0 11 1;
#X connect 5 0 15 0;
#X connect 5 0 16 0;
#X connect 6 0 1 0;
#X connect 6 1 7 0;
#X connect 7 0 4 0;
#X connect 7 0 14 0;
#X connect 8 0 2 0;
#X connect 9 0 12 0;
#X connect 10 0 11 0;
#X connect 11 0 3 0;
#X connect 12 0 2 0;
#X connect 13 0 2 0;
#X connect 14 0 10 0;
#X connect 15 0 13 0;
#X connect 16 0 6 0;
#X restore 323 142 pd piano;
#X obj 64 19 send cuica;
#X msg 62 -7 1;
#X msg 100 -8 2, f 7;
#X obj 59 -40 bng 15 250 50 0 empty empty empty 17 7 0 10 -262144 -1
-1;
#X obj 100 -40 bng 15 250 50 0 empty empty empty 17 7 0 10 -262144
-1 -1;
#X obj 322 24 send piano;
#X obj 471 -36 bng 15 250 50 0 empty empty empty 17 7 0 10 -262144
-1 -1;
#X msg 320 -2 60;
#X msg 399 -5 62;
#X msg 471 -4 0;
#X connect 1 0 17 0;
#X connect 2 0 18 0;
#X connect 4 0 5 0;
#X connect 7 0 8 0;
#X connect 11 0 10 0;
#X connect 12 0 10 0;
#X connect 13 0 11 0;
#X connect 14 0 12 0;
#X connect 16 0 19 0;
#X connect 17 0 15 0;
#X connect 18 0 15 0;
#X connect 19 0 15 0;
